{"title":"Page Eight [2011] BRRip XviD - CODY","uid":6867015,"size":737011051,"categoryP":"video","categoryS":"movies","magnet":"?xt=urn:btih:3946c354d89e46ee787b329b6af3dd4a0c1c765a&amp;dn=Page+Eight+%5B2011%5D+BRRip+XviD+-+CODY&amp;tr=udp%3A%2F%2Ftracker.openbittorrent.com%3A80&amp;tr=udp%3A%2F%2Fopen.demonii.com%3A1337&amp;tr=udp%3A%2F%2Ftracker.coppersurfer.tk%3A6969&amp;tr=udp%3A%2F%2Fexodus.desync.com%3A6969","seeders":0,"leechers":1,"uploader":"CODYBOSS1969","files":6,"time":1323139522,"description":"General\nComplete name                            : Page Eight [2011] BRRip XviD - CODY.avi\nFormat                                   : AVI\nFormat/Info                              : Audio Video Interleave\nFile size                                : 703 MiB\nDuration                                 : 1h 42mn\nOverall bit rate                         : 954 Kbps\nWriting application                      : VirtualDubMod 1.5.10.3 | www.virtualdub-fr.org || (build 2550/release)\nWriting library                          : VirtualDubMod build 2550/release\n\nVideo\nID                                       : 0\nFormat                                   : MPEG-4 Visual\nFormat profile                           : Advanced Simple@L5\nFormat settings, BVOP                    : 4\nFormat settings, QPel                    : No\nFormat settings, GMC                     : No warppoints\nFormat settings, Matrix                  : Default (H.263)\nCodec ID                                 : XVID\nCodec ID/Hint                            : XviD\nDuration                                 : 1h 42mn\nBit rate                                 : 817 Kbps\nWidth                                    : 720 pixels\nHeight                                   : 400 pixels\nDisplay aspect ratio                     : 16:9\nFrame rate                               : 23.976 fps\nColor space                              : YUV\nChroma subsampling                       : 4:2:0\nBit depth                                : 8 bits\nScan type                                : Progressive\nCompression mode                         : Lossy\nBits/(Pixel*Frame)                       : 0.118\nStream size                              : 601 MiB (86%)\nWriting library                          : XviD 1.2.1 (UTC 2008-12-04)\n\nAudio\nID                                       : 1\nFormat                                   : MPEG Audio\nFormat version                           : Version 1\nFormat profile                           : Layer 3\nCodec ID                                 : 55\nCodec ID/Hint                            : MP3\nDuration                                 : 1h 42mn\nBit rate mode                            : Constant\nBit rate                                 : 128 Kbps\nChannel(s)                               : 2 channels\nSampling rate                            : 48.0 KHz\nCompression mode                         : Lossy\nStream size                              : 94.3 MiB (13%)\nAlignment                                : Aligned on interleaves\nInterleave, duration                     : 42 ms (1.00 video frame)\nInterleave, preload duration             : 504 ms\nWriting library                          : LAME3.99 \nEncoding settings                        : -m s -V 4 -q 2 -lowpass 17 -b 128\n\n\n\n\nIMDB link:                                &lt;a href=&quot; http://www.imdb.com/title/tt1797469/&quot; rel=&quot;nofollow&quot; target=&quot;_NEW&quot;&gt; http://www.imdb.com/title/tt1797469/&lt;/a&gt;\n\n\n\n\nSubtitles included                       : English, Romanian\n\n\n\n\nPlease seed at least 1,5:1. This way this torrent has a chance to survive !\n\n\n\n\nThanks. Enjoy !!","torrent":{"xt":"urn:btih:3946c354d89e46ee787b329b6af3dd4a0c1c765a","amp;dn":"Page+Eight+%5B2011%5D+BRRip+XviD+-+CODY","amp;tr":["udp%3A%2F%2Ftracker.openbittorrent.com%3A80","udp%3A%2F%2Fopen.demonii.com%3A1337","udp%3A%2F%2Ftracker.coppersurfer.tk%3A6969","udp%3A%2F%2Fexodus.desync.com%3A6969"],"infoHash":"3946c354d89e46ee787b329b6af3dd4a0c1c765a","infoHashBuffer":{"type":"Buffer","data":[57,70,195,84,216,158,70,238,120,123,50,155,106,243,221,74,12,28,118,90]},"announce":[],"urlList":[]}}